<svg version="1.2" xmlns="http://www.w3.org/2000/svg" viewBox="0 0 4173 1198" height="60" width="120"><style>.a{fill:#e31e24}</style><path fill-rule="evenodd" class="a" d="m1538.9 686.7c-1.9 1-2.7-8-4.4-6.9-17.8 11.7-13.6 15.1-14 15.7q-3.1 1.5-6 2.8c-1.4 0.6-11.9-4.5-13.2-4-3.2 1.4 3 8.3 0.1 9.3-1.1 0.3-6.1-6.6-7.2-6.2-0.7 0.2 2 8.1 1.3 8.4-51.2 18.6-81 10.9-103.5-29.6 52.9 20.2 129.5-9.2 154.8 6.5q-4 2.1-7.9 4zm-18.5 0.8c-17.5-8-76.6 9.1-113.2-1.1 16.2 25 47.5 19.9 113.2 1.1z"/><path fill-rule="evenodd" class="a" d="m2452.3 325.7c-1.7-8-4.8-18.6-15.5-12 7.1-25.3-3.3-31.3-27.5-54.7 7.4 14.5 19.1 22.7 22.4 30.8 4.2 10.4-0.6 19.9-3 33.1 9.3-8.5 18.6-3.6 17.3 4.8-0.9 5.9-1 11.7 2.2 18.4 32.7-12.5 17.5-99.8-61-103.7 59.9 15 78.6 60.8 65.1 83.3z"/><path fill-rule="evenodd" class="a" d="m2396.3 271.7c-2 6.7 0.6 15.4 2.1 22.1-0.4 7.8-21.9-3.8-28.5 1.9-6.5 5.6-2.8 23.5-2.8 23.5 0 0-7.3-21.1-3.6-25.6 3.7-4.5 18.7-2.2 25.4-3.9 6.7-1.7 0.9-16.5 2.4-20.6 1.6-4.1 10.8-11.3 16.2-8.7-4.9 3.3-9.8 6.5-11.2 11.3z"/><path fill-rule="evenodd" class="a" d="m2353.4 300.4c0 0 0.1 8.1-6.1 16.7-9.7 13.8-34.9 16-48.6 9-23.6-12-19.9-21.3-31.4-30.3-6-4.8-14.4-8.2-20.8-10.3-10.8-3.5-10.4-7.6-0.8-15.9 6.9-5.9 23.3-13.3 47.2-1.6-28.7-1.8-44.6 1.5-47.6 10.8 3.2-1.4 22.7 1.5 30.6 12.7 13.6 19.8 17.3 28.3 39.9 29.8 23.5 1.7 37.6-20.9 37.6-20.9z"/><path class="a" d="m2265.8 250c-25.1-11.6-45-25.6-58.3-42.4-12.2-15.3-19-32.9-19.6-53.3-0.1-2.1 1.2-15.2 5.5-8 5.3 13.4 10.4 20.1 16.3 28.6l13.9 15.5c-5.5-3.7-15.5-10.4-23.4-19.6-5.6-6.4-7.9-10.6-6.2-0.2 5.1 31.8 38 52.5 66.5 65.6z"/><path fill-rule="evenodd" class="a" d="m2295.8 218.7c0 0 2.6-2.1 6.7-2.9 4.1-0.9 7.4 3.8 10.9 11.1 3.6 7.3-5.6-8-10.6-8.4-4.9-0.3-7 0.2-7 0.2z"/><path fill-rule="evenodd" class="a" d="m2307.5 221.8c0.1 0.3-0.9 5.2-5.2 4.6-2.9-0.4-5.3-4.6-3-6.7l2-1.9 3.6 0.4c0 0 2.5 3.3 2.6 3.6z"/><path fill-rule="evenodd" class="a" d="m1786 242.4c-78.5 3.9-93.7 91.2-61 103.7 3.2-6.7 3.1-12.5 2.2-18.4-1.3-8.4 8-13.3 17.3-4.8-2.5-13.2-7.2-22.7-3-33.1 3.3-8.1 15-16.3 22.4-30.8-24.3 23.4-34.6 29.4-27.5 54.7-10.7-6.6-13.8 4-15.5 12-13.5-22.5 5.2-68.3 65.1-83.3z"/><path fill-rule="evenodd" class="a" d="m1765.6 260.4c5.4-2.6 14.7 4.6 16.2 8.7 1.6 4.1-4.2 18.9 2.5 20.6 6.6 1.7 21.7-0.6 25.4 3.9 3.7 4.5-3.6 25.6-3.6 25.6 0 0 3.7-17.9-2.9-23.5-6.5-5.7-28 5.9-28.4-1.9 1.5-6.7 4.1-15.4 2.1-22.1-1.4-4.8-6.3-8-11.3-11.3z"/><path fill-rule="evenodd" class="a" d="m1857.4 321.3c22.6-1.5 26.2-10 39.9-29.8 7.9-11.2 27.3-14.1 30.6-12.7-3-9.3-18.9-12.6-47.6-10.8 23.9-11.7 40.3-4.3 47.1 1.6 9.7 8.3 10.1 12.4-0.7 15.9-6.5 2.1-14.8 5.5-20.8 10.3-11.5 9-7.8 18.3-31.4 30.3-13.7 7-38.9 4.8-48.6-9-6.2-8.6-6.1-16.7-6.1-16.7 0 0 14 22.6 37.6 20.9z"/><path class="a" d="m1912.7 236.2c28.4-13.1 61.4-33.8 66.5-65.6 1.6-10.4-0.6-6.2-6.2 0.2-7.9 9.2-17.9 15.9-23.4 19.6l13.9-15.5c5.9-8.5 11-15.2 16.2-28.6 4.4-7.2 5.6 5.9 5.6 8-0.6 20.4-7.4 38-19.6 53.3-13.4 16.8-33.2 30.8-58.3 42.4z"/><path fill-rule="evenodd" class="a" d="m1870.4 218.5c-5 0.4-14.2 15.7-10.7 8.4 3.6-7.3 6.9-12 11-11.1 4.1 0.8 6.6 2.9 6.6 2.9 0 0-2-0.5-6.9-0.2z"/><path fill-rule="evenodd" class="a" d="m1868.3 218.2l3.5-0.4 2.1 1.9c2.3 2.1-0.2 6.3-3 6.7-4.3 0.6-5.3-4.3-5.2-4.6 0.1-0.3 2.6-3.6 2.6-3.6z"/><path fill-rule="evenodd" class="a" d="m2008.4 75.7h3l27.4 32.9c-15.4 2.3-27.3 15.5-27.3 31.2 0 13.9 9.3 25.8 22.1 30 0.2 0.1 3 0.1 3.2 0.2l-22.4 26.4h-6zm28.6 0h98.4l-27.1 32.6h-13.2v-0.3h-17.8v0.3h-13.3zm124.1 0h2.9v120.7h-5.9l-22.5-26.5c0.2 0 3-0.1 3.2-0.2 12.8-4.1 22.2-16 22.2-29.9 0-15.8-11.9-28.9-27.3-31.2zm-28.6 120.7h-37.3v-70.1h29.7c8.8 0 16 5.6 16 13.5 0 7.9-7.2 14.4-16 14.4h-28.2l7.7 9zm-55.2 0h-37.3l28.1-33.1 7.7-9h-28.2c-8.8 0-16-6.5-16-14.5 0-7.9 7.2-13.4 16-13.4h29.7z"/><path class="a" d="m2174.2 31.2c8.5 3.7 12.8 17.4 16 35 5.7 31.6 3.4 73.7 20.4 101.5 8 13 33.6 27.4 46.1 38.8 9.2 8.2 10.2 15 9.7 25.4-0.1 2.8 0.6 11.2 6.3 17.9 7.8 9.1 28.1 20.1 26.4 20.8-22.8-2.6-37.6-16.6-39.5-25.9-2.5-12.2 2-24.8-8.8-34.6-19-17.2-44.7-22.2-54-57.8h-0.1c-2.3-8.8-4.4-22-6.8-36.6-3.9-24-5.5-58-10.5-72.6-3.2-9.5-17.9-11.3-24.5 1.4-3.4 6.4 2.2 9.9-0.1 11-6.8 3.5-6.7-6.7-11.7-10.7-5.3 4.5-9.7 1.2-16.2 6-3.9 2.9-4.9 2.1-4.2-2.9l1.1-7.7c1.9-9.1 5.6-16.6 10.3-22.6 6.1-7.5 13.8-12.5 22.2-15.2 8.3-2.7 17.1-3.1 25.5-1.3 7.2 1.4 14.1 4.5 19.9 9 15.6 12 21.9 31.1 28.8 52.3 6.4 19.5 13.4 41 29.1 58.8 2.8 3.3 7.5 4.4 12.7 5.7 4.2 1 8.8 2.1 13.8 4.5 10.7 4.9 13.7 12.9 16.3 19.7 3.5 9.3 12.5 3.7 21 5.1 10.9 1.8 14 7.9 17.4 14 5.7 9.3 15.1 9.4 25.5 9 12.7-0.6 28.7 5.5 41 28.3 5.5 10.2 9 29.5 24.6 30.3 38 1.9 87.7 4.6 135.9 22.2 48.7 17.8 95.5 50.7 126.4 113.1 7.7 15.3 13.6 28.9 17.7 43.1 4.1 14.2 6.3 28.9 6.4 46.3v0.1 2.9 0.1c-0.1 11.4-0.7 22.5-1.4 33.6-2.3 41 14.7 58.6 16.4 63.7 11.9 35.1 9.5 34.9-11.4 65.4 1.1-5.9-8.2-27.1-9.8-43.8-1.4-13.8 3.2-24 3.2-24-4.3-23.6-14.1-34.6-12.7-58.6 9-17.7 6.1-42.5-0.3-57.6-7.7-18.5-22.9-42.1-36.7-54.4 14 9.2 25 18.9 33.9 33.4-1.5-21.8-9.5-41.1-13.2-48.5-29-58.4-76.4-89-122-105.6-46-16.8-97.1-20-134.2-21.9-13.5 1-27.3-5.8-39.4-0.5-3.9 1.7-8.6 3.9-12.1 5.2-2.7 1-13.2 0.1-7.1-2.4 8.2-2.2 24.2-13.8 26.5-20.6 2.6-7.9 1.9-17.2-2.3-25-7.9-14.7-25-16.3-32.1-16-7.5 0.3-20.2 1.6-27.5-2.7-3.3-1.9-0.9-7.8-2.8-10.9-2.8-4.4-6-16.4-23.1-10.8-6.5-0.5-12.5 4.1-15 2.6-2.4-1.4-1.4-8.9-3-13-7.5-30.8-19.9-6.7-37.9-20.6-15.9-21.2-24.9-46.6-31.7-67.4-6.2-19-13.4-41.5-25.6-50.9-7.2-6.6-31.1-10.9-36.7-6.4-14.6 1.6-28 21.3-28.8 32.9 11.6 5.2 24.1-17.7 42.7-9.6z"/><path class="a" d="m2711.5 592c6.2 15.8 11.5 31.5 10.9 50.6-0.2 6.8 3.3 13.1 4.5 17.5 0.1 0.7 0.3 1.3 0.8 3.1 1.1 3.8 1.8 6.6 1.7 9.5-0.3 8.5-4.6 11.2-18 10.7l-53.2-1.9c-16.4-0.5-22.1-4.5-21.8-13.8 0.2-4.8 3-10 6.9-17.1l1.3-2.3q0.5-1.1 1.2-2.6c0.7-1.8 1.4-3.8 1.9-5.8q0.8-3.2 1.2-6.7c1.4-11.1-0.2-23.4-5-31.8-4.7-8.2-8-16.7-15-24.1-31.7-33.4-34.2-24.5-36.4-57.4 0.1-7.8-11.2-22.1-21.2-14.4-1.3 1 2.6-4.2 2.4-5.8-0.6-4.2 1.9-10.6 3.4-15.1 2-6.1-3.7-22.7-10.8-37.7-1.6-3.5-3.3-6.9-5-10.1-3.6-6.6-7.1-12.3-10-15.6 23.3 7.5 43.5 71.7 50.4 93.3 2.9 18.8 5.9 27.3 10 34.1 5.5 9.3 14.1 17.3 20.9 24 14.9 14.7 22.6 28.7 31.5 50.3 1.8 4.4-18 6.7-2.1 20.5-0.7 2.7-6.1 2.8-7.1 5.3-0.5 1.2 3.4 5.1 2.7 6.4-8.9-3.7-13 0.3-15.2 15.3 0 4.1 12.2 4.6 12.2 0.6 0.4-20.8 21.4-17.6 20.5-13.4-8-3-13.6 3.3-15.1 8.7-3.5 12.4 14.7 9.6 15.4 7l34.5 2.9c2.3 0.1 11.7-0.3 9.4-9l-0.9-3.2c-1.3-5-4.5-10.6-5.7-16.7-0.3-1.6-7.7-3.6-7.7-5.3 8-1.1 7.3-5.5 7.2-8.4-0.2-7.5-1.3-15.2-4.2-22v-0.1c-6.4-15.2-12.3-29.3-16.1-44.2-3.9-15.2 2.4-48.2 10.6-66.8-9 48.7 0 68.4 9 91.5z"/><path class="a" d="m2568.5 534.8l1.4 0.9c-9.2 14-31.6 62-7 72.5 3 1.3 26.9 0.4 4.9 6.9-1.1 0.3 0.6 13 0.6 13-3.6 7.8-28.4 16.2-23.5 28 12.6 1.8 25.8-3.5 23.1-16.8 5.2 5.4 5.8 10.9 0 16.3 16.6 0.1 57.7 9 42-19.6-0.5-0.9-8-2.9-8.4-3.7-1.1-1.7 5-2.1 4.3-3.7-8.6-19 7.7-41 18.1-55.9l8.2 8.9c-11.5 12.4-28.2 30.4-17.2 48 42 51.2-43.5 32.4-69.4 31.9q-2.5-0.1-4.5-1.3h0.1c-8.5-5.3 10.8-31.9 13.9-38.2 3-9.8-4.2-12.5-8.4-20.9-7.6-14.7 2.2-43 8.1-63 4.6 0.5 9.3-1.9 13.7-3.3z"/><path class="a" d="m2599 538.2c-25.1 5.7-58.8 7.8-87.9-4.1-28.2-11.6-47.6-22.8-86.4-49.9l4.8-9.4c0.9 0.6 10.3 9.5 11.1 10 34.4 24.7 47.5 33.8 73.9 44.6 26.2 10.7 58.1 4.6 80.1-0.4z"/><path fill-rule="evenodd" class="a" d="m2586.3 491c-26 44.5-101.8 18.7-128.4-4.8 48.5 23.6 113.7 46.8 120-17-0.6-0.5 8.4 21.8 8.4 21.8z"/><path class="a" d="m2609.9 306.2c-39.1-19.8-77-32.3-120.7-48.7 34.4 5.1 86.7 21.7 126.2 46.3 27.9 17.4 57.2 49.7 68.6 80.6-19-18.5-33.7-57.7-74.1-78.2z"/><path class="a" d="m2346.5 397.8c-2.8 28.6 2.7 98.6 10.4 119.3h0.1v0.1c1.2 3.2 2.5 7.4 3.9 12.2 1.3 4.7 2.6 10 3.9 15.6 2.8 12.4 5.3 26.4 6.7 39.1 0.2 2.4 0.7 7.1 6.7 9.7 2.2 1-5.4 2.6-5.5 11.3-0.1 8.2-1.1 14.5-3.4 17.5-3.6 4.5-17-1.6-21.1 20.2 1.4 3.9 4.5 5.9 16 3-9.9-11.4 5.2-21.3 11.4-23-7.6 5.9-16.9 23.9 8.6 24.5 6.1 1 33.1 3.6 37.4-0.9 2.5-2.6 5.4-8.6 1.8-14.6-2.4-4.7-3.4-8.9-7.3-12.8-0.6-2.5-9.6-1.5-9.8-3.8-0.1-1.3 8.3-4.4 9-12.8 0.4-5.1 1.3-10.2 1.8-16 2.7-21.1 4.7-71.5 1.6-87.7-6.3-0.6-27-3.2-18.8-34.2-1.3 22.3 13.2 31.9 22.1 18.8 4.8-11.4 4.7-19.2 3-30.6-3.2-22-1-46.1 4.7-59.6 0.8 6.9-3.3 24.6 0.7 42.4 8.3 37.3 0.2 57.4-5.4 61.1 3.2 16.4 2.9 43 0.8 63.5-2.5 26.3-2 49.1 3.9 67.3 6.6 11.2 3.7 22.8 3.7 22.9-0.7 2.5-4.4 3.6-9.7 4q1-2.3 2-4.6h-79.9l-0.5 0.9c-4.1-2-3.3-5.6-2.4-13.3 0.8-7.3 7.4-13.3 18.1-21.7 4.4-10.1 4.2-26.6 0.1-48-3-15.2-7.3-30.8-8.4-34.9-12.4-44.2-16.5-87.8-16.4-134.9 0-4.8 12.7-49.8 12.8-54.7z"/><path class="a" d="m2321.2 357c-11.1 16.1-29.5 40.1-37.7 61.2-3.1 8.3 0.5 13-1.1 21.4-2 10.3-2.5-7.5-10.8-5.7-5 1-17.6 17.9-21.9 21.9-12.8 12.2-20 21.1-34.7 39.6-8.4 10.6-8.4 40.8 0.7 42.2-5.7 2.7-9.5 9.8-0.4 17.4-14.5 2.2-23.6 16.7-13.9 21.4 2.8 0.2 12 7.1 15.5-8 5.4 3.5-3.7 15.3 7.1 11.3 7.1 0 37.8 6.2 40.3-6.2 2-9.7-4.8-13.3-11.7-16.7 5.3-10.2 3.3-10.5 4-19.3 0.6-7.3-4.4-16.3-1.2-19.9 0.8-0.9 2.6 0.3 4-1 1.5-1.4 6.9-4.3 8.7-5.8 9.4-8.5 20.6-22.6 31.4-31.6 7.6-6.4 14.8-10.4 22.8-12 8.1-1.5 16.6-0.5 26.6 3.4l-4.6 5.2c-7.4-2.8-13.2-2.3-18.5-1.3-5.3 1-14.1 8.3-19.9 13.1-12.5 10.5-26.8 24.2-38.3 35.1-1.1 1-0.6 3.9-1 4.3v0.1h-0.1c-2.8 3.2-5.5 17.9-3.8 25.7 4.2 6.9 11.9 12.6 9.3 25.2l-0.7 1.7v0.1c-1.1 6.2-14.3 5.4-30 5.4-7.9 0-17.7-0.6-25.7-1-14.3-0.7-30.3 2.3-21.1-21.7q0.8-2.2 2-4.5 1.2-2.3 2.8-4.5l1.5-0.2c0.7-3.5 0.4-14.6 0.2-26.1-0.3-9.8-0.5-19.4 1-25.8v-0.1c3-13.4 25.5-34.4 40.5-48.6 30.1-28.6 52.9-68.6 77.1-103.8z"/><path fill-rule="evenodd" class="a" d="m2315 329.3c4.3 3.9 10.5 13.4 9.9 21.6-1.3 17.6 21.9 25.9 15.9 52 0 0-19.7-32-22-51.3-2.4-19.3-24.7-27.6-24.7-27.6z"/><path fill-rule="evenodd" class="a" d="m2360 325.7c-4.9 25.7-6.8 44.1-2.9 59.9 26.4-26 44.4-26.2 65.7-37.3 9.4-4.9 20.2-9.3 24.5-21 1.2-3 3.2 3.9 3.3-0.3l8.6 7.3c0.1 0.1-3.7 19.5-52.7 27.2-25.9 4.1-30.2 20.5-41.3 29.1-20.3 15.9-19.6 5-16-18.9 2.6-17.3-6.6-21.8 5-53 4.2-11.4-5.4-24.1-7.5-36.5 5.6 17.9 16.2 28.5 13.3 43.5z"/><path fill-rule="evenodd" class="a" d="m2368.3 634.4c-17.7-5.4-33.2-1-52.8-18.9-69.7-63.5-150.3-25.7-209.9 44.3 2.3-3 1-4.9 3.4-7.7 57.5-70.5 132.4-100.8 205.9-44.4 18.1 13.9 28.4 7.2 53.4 26.7z"/><path fill-rule="evenodd" class="a" d="m2320.4 646.5c9 23.5-8.6 51.3-10.1 42.9-5.7-33.1-17.8-62.8-53.8-76.6-55-21.2-106.9 5.8-150.9 55.9 2-2.5 0.9-4 2.9-6.3 41.4-49 90.5-75.2 143.8-60.8 53.1 14.4 61.2 76.6 61.4 76 5.9-14.3 6.3-25.4 0-40.5 23.9 16.9 37.9-14.8 55.1-9.2-2.7 0.9-17.6 24.6-48.4 18.6z"/><path fill-rule="evenodd" class="a" d="m2110.2 676c11.1-23.4 56.3-53.7 84.4-58.7 26.2-4.8 52.1 4.5 57 36.8 7.1-2.8 14.7 0.8 20.2-8.7 4.5 12.4 10.6 22.7 19.4 24.6 7.1-5.5 4.4-20.1-4.8-38.6 17.3 21.6 16.5 37.9 7.8 53.1l-8.4-8.1q-1.4-1.2-2.6-2.2c-5.9-6.4-10.3-11.9-12.2-20.1-9.6 9.9-14.3 2.4-23 7.2-3.2-33.2-26.8-44.3-52.9-39.6-30 5.4-69 34.2-85.8 56.7 1.3 0.4 0.9-2.4 0.9-2.4z"/><path class="a" d="m2124.1 677.7c0.7 0.4 31.7-9.9 57.1-9.9 19.7 0 18 16.3 38.9 20.5 6.7 1.4 15.3 1.8 21.6-1.3 10.1-5 12.4-16.6-0.3-20.8-8.6-2.8-14.3 3-14.4 12-8.4-1.1-6.8-23.2 14.2-19.6 11.3 3.1 14.9 13.1 12.2 21.7q-7.4 6.9-15.2 13.1c-5.8 1.2-12.4 0.7-17.9-0.5-18.8-3.8-19.8-17.3-39.3-18.8-17.4-1.4-37.3 2.5-48.1 5.1-3.8 0.9 4.1 4-4.4-0.2z"/><path fill-rule="evenodd" class="a" d="m2118.2 673.8c18.6-14.7 38.7-29 64.5-29.7 12.9-0.3 31.6 1.3 39.4 24.1 0.9 2.4 2.2 5.5 4.2 8.4 1.5 2.2 4 4.1 5.6 3.6-7 3.8-9.5-0.9-11.1-4.8-8.2-20.3-19.2-26.9-38.3-26.7-25.8 0.4-46.6 13.4-64 29.3z"/><path fill-rule="evenodd" class="a" d="m2201.7 715.6c-8.9 8.3-29.8 9.6-36.6-6.7-5-12 2.9-25.8 17.1-22.7 6.1 1.3 10.9 7 9.6 14.1-2.5-15.9-22.4-8.5-20.3 3.9 0.7 14.4 21.8 15.3 29.9 2.8 4.6-7.2 4.6-20.2-4.9-29.8 16.1 12 15.1 29.2 5.2 38.4z"/><path fill-rule="evenodd" class="a" d="m2106.8 703.9c-2 0.4-4.3-1.6-4.3-2.4-2.1-21.1 8.6-75.9 29.3-84.8-11.2-7.3-17.8-1.5-23.9 5.4-7.3 8.3-11.2 42.5-12.7 43.7 0-2.5 5.7-29.6 4-49.3-0.7-7.9-6.4-17-12.6-21.8v-4.7c11 6.9 17.7 14.7 17.7 26 10.9-7.5 19.2-11.1 36.5-1.3-21.9 11.9-41.1 68.2-34 89.2z"/><path fill-rule="evenodd" class="a" d="m2663 762.6c-92.1 61.4-186 28.4-258.1-48.3-2.9-3.1-1.3-5.2-4.2-8.4 74.6 76.2 174.6 116.1 261.8 47 24.6-19.5 42.5-9.6 57.2 5.8-23.5-6.9-34-11.3-56.7 3.9z"/><path fill-rule="evenodd" class="a" d="m2718.8 758.3c-4.9-20-11.6-41.1-49.1-29.5 7.9-15.1 6.7-16.5 9.5-32.6 0-0.3-10.5 15-32 33.1-15.6 13.2-36.9 29-64.9 35.1-56.2 12.2-118.5-9.3-168.8-52.8-4.8-4.2-9.4-8.4-13.8-12.7q0.7-1 1.3-2.1c4.7 4.4 9.5 8.8 14.6 13 52 42.2 112.5 65.7 175.3 46.4 19-5.8 37-18.2 51.1-31.7 19.4-18.4 33.3-37.9 49.4-37.2-7.4 17.5-3.4 18.6-9.9 32.5 38.5-6 41.1 28.1 37.3 38.5z"/><path fill-rule="evenodd" class="a" d="m2674.9 697c-4.1-6.4-17.7 5.7-24.9 8.2 7.2-15.1-4.4-18.5-13.6-20.6-0.7-0.2-8 43.4-69 57.8-53 12.5-111.9-12.6-158.8-58.5q0.7-1.1 1.3-2.2c48.8 44.7 106.3 71.2 165.7 51.4 41.5-13.8 54.1-41.5 59.6-57.5 8.5 0.8 25 9.4 19.1 23.3 13.6-11.5 29-12.3 33.7-10.6z"/><path fill-rule="evenodd" class="a" d="m2417.6 667.3c17.2 7.9 43.7 13.2 62.4 9.8 24.7-4.5 40.7-22.9 36.1-41.3 6.4 0 22.9 2.9 20.5 25.3-1.4-9-6.9-19.6-15.2-19.5 4.3 16.1-13.1 34.5-42.8 39.3-18.6 3-44.2-1.8-61.4-10.6q-0.6-0.3-0.9-0.6 0.6-1.2 1.2-2.4 0 0 0.1 0z"/><path fill-rule="evenodd" class="a" d="m2430.3 698.8c10.3 5.2 22.5 12.8 33.9 16.1 18.3 5.3 41.3 4.9 57 0.5 12.1-3.4 24.5-8.4 34 2.4 5.9-1.6 6.1-9 1.1-14.4-2.1-2.3-4.7-3.3-7.8-4.5 0.3-0.8 2.3-0.9 6.8-2.1 14.7 14.2 5.9 29.5 0.4 30.5-2.6-5.3-9.9-11-15.6-9.9-14.3 2.7-49.4 9-76.3-0.1-10.6-3.5-24.2-11.2-33.2-16.7-0.6-0.3-2.1-0.7-0.3-1.8z"/><path fill-rule="evenodd" class="a" d="m2555 697.9c14-3.4 18.4-21.2 26-25.8-17.3-16.8-53.1 22.7-86.6 24.1-23.9 0.9-52.6-5.7-80.7-21.5q-0.8 1.5-1.6 3c45.5 26.6 100.1 30.6 142.6 2.1 5.2-3.4 10.4-6.4 16.2-6-8.9 9.7-6.3 14.9-23.1 24.9z"/><path fill-rule="evenodd" class="a" d="m2563 669.4l-6.2 4.2c-21.6-11-24-7.3-33.6-0.6 13.2-15.3 19.5-13.6 39.8-3.6z"/><path fill-rule="evenodd" class="a" d="m2626.3 682.1c25.6-16 103.1 13.7 156.6-6.6-22.8 41-52.9 48.7-104.7 29.9-0.7-0.3 2-8.3 1.3-8.5-1.1-0.4-6.1 6.6-7.3 6.2-2.9-0.9 3.3-7.9 0.1-9.3-1.3-0.6-11.9 4.6-13.3 4q-3-1.3-6.1-2.8c-0.4-0.7 3.9-4-14.1-15.9-1.7-1.1-2.6 8-4.5 7q-3.9-1.9-8-4zm141.2 3.7c-37 10.3-96.8-7-114.5 1 66.4 19.1 98.2 24.3 114.5-1z"/><path fill-rule="evenodd" class="a" d="m2534.1 656.6c18.5-13.7 74.6 11.8 113.3-5.7-17.1 42.9-43.9 37.9-113.3 5.7zm102.2 3.1c-26.8 8.9-70.7-5.8-83.5 1.1 48 16.4 71.7 20.6 83.5-1.1z"/><path fill-rule="evenodd" class="a" d="m2384.3 721.4c-2.8 53.5-14 90.5-49.9 145.1-6.1 9.4-5.2 14.7-6.7 30.5-17.4 1.3-36-6.7-33.8-24.3-11.8 6-28.5 15.9-42.2 7.3 0.6-17.5 10.1-27.9 22.7-38.7-3.7-0.7-6.7-4.9-9.7-13.4 5.2-1.5 17.7-2.7 30.3-8.5 19-8.7 40.6-24.8 51.2-54.2q2.6-2.5 5-5c-2.5 31.7-30.5 56.1-51.9 65.5-11.3 5-24.8 4.6-27.8 6 2.3 5.7 7.1 7.6 12.6 7.4-11.8 11-23.8 21.3-24 37.2 14.5 2.8 30-6.4 43.6-18.2-12.8 29.7 6.7 30.7 17.3 33.7-0.3-11.4 2.7-24.6 7.6-31.7 34.8-51.1 47-90.6 50-131.2q2.9-3.7 5.7-7.5z"/><path fill-rule="evenodd" class="a" d="m2361.8 749q3.4-3.8 6.7-7.8c-8.4 62.3-40.6 93.9-78.3 113.7 34.8-24.5 67.6-53.7 71.6-105.9z"/><path fill-rule="evenodd" class="a" d="m2430.5 768.3c-2.5 12.3 3.5 22.7 10.3 26.1 11.9 6 26.9-5 20.7-16.9-4.2-10.9-22.3-7-16.7 6.9-4.3-5.1-3.5-11.9 0.4-16 9-9.4 21.3-2.3 23.3 9.7 2.6 16.4-13.5 25.6-23.9 23.3-11.6-2.5-20.4-15.7-14.1-33.1z"/><path fill-rule="evenodd" class="a" d="m2398.1 701.3c8.7 9.2 22.7 26.2 30.1 46.9 3.2 9.1 3.8 19 3.2 29.5-0.7 11.4-3.3 21.4-5.5 32.6-1.5 7.8-1.5 16.5 6.8 21-9.2-1.7-11.2-7.8-11.4-14.1-0.2-11.5 1.4-23.6 2-35.2 0.5-10.5 0.5-20.4-1-27.8-4.8-23.4-13.8-37.4-24.9-51.7q0.4-0.6 0.7-1.2z"/><path fill-rule="evenodd" class="a" d="m2388.7 715.3c3.2 6 6.5 13.8 7.1 21.3 1 10.6-4.2 33.3-9.9 41.5-2.4 3.4-0.3-6.3-0.3-6.7q0.8-2.5 1.5-4.9c6.1-20.5 6-36.9 0.9-50.3z"/><path fill-rule="evenodd" class="a" d="m2389.1 758.9c1.9 4.6-1.2 14.4-3.8 19 7.4 5.7 14.3-1.8 21.5-2.7-5.2 11.2-10.6 10.4-13.8 21.1 5.4 2.9 14.8 4.5 24-9.3-3.1 14.4-5.1 26.5-2.7 34.7 2.6 8.7 6 13.3 17.1 14.1 1 0 1.4 3.2 2.3 3.5-5.6 1-12.8-2.9-18.4-9.5-5.7-6.6-9.3-17-8.6-26.9-5.3 4.5-17.4-0.2-21.9-1.2 2.2-9.8 7-14.3 11.7-16.6-7.2 1.6-11.7-0.8-18.7-6.6 3.5-2.2 7.6-6.6 11.3-19.6z"/><path fill-rule="evenodd" class="a" d="m2401.8 729.2c5.7 12.9 10.9 31.4 4.4 47.2-1.5 3.4-8.1 11.4-8.2 11.1 0.6-1.7 1.7-8.4 2.8-10 7.4-10.7 5.8-32.4 0-48.6z"/><path fill-rule="evenodd" class="a" d="m2426 734.2c8.5 7.7 20.6 17.6 21.1 31.4 0.1 3-4.1 13.2-4.3 12.9-0.1-1.4-1.6-6.7-1.3-8.3 1.8-10.3-6.7-25.8-16.4-35.9z"/><path fill-rule="evenodd" class="a" d="m2359.3 815.6c21.7 9.2 35.7-27.5 53.9-9-11.8 26.1-40 41.4-53.9 9zm46.8-6.3c-8.3-6.4-27.8 16.3-40.8 11.4 18.6 15.6 35.3 1.7 40.8-11.4z"/><path fill-rule="evenodd" class="a" d="m2431.2 644.7c-0.5 1.5 15.7 0.5 14.2 15.5-1.6 14.9 10.6 19.4 10.6 19.4l-23.8-5.5-15.2-5.7q3-6 5.8-12.2c4.3-6.1 8.6-12.3 8.4-11.5z"/><path fill-rule="evenodd" class="a" d="m2120.8 673.9c17.4 0.7 25.8 17.8 13.8 31.7-5.9 6.8-21.5 6.9-25.9-3.7-3.3-7.7 1.9-16.7 11.1-14.7 3.9 0.9 7 4.6 6.2 9.2-1.6-10.3-14.3-6.6-12.9 1.4 1.1 9.1 15.3 9.1 19.9 0.7 8.4-15.7-15.7-33.7-27.8-8.1-0.3 0.6-1.3-2.2-1.6-2.6 0.8 0.7 2.8-14.4 17.2-13.9z"/><path fill-rule="evenodd" class="a" d="m2146.2 726.6c-6.3-3-12.2 2.9-3.6 4.6 13.6 2.6 22.9-10.9 16.6-21.2-4.2-7-16.5-7.7-18.7 2.1-1.4 8.1 12.3 10.4 13.9 0.1 0.9 4.6-1.8 8.9-8 9.9-9.3 1.6-15.1-7.3-11.9-15.1 4.4-10.6 20.1-10.4 26-3.6 11.9 13.8 4.3 31.8-14.4 31.5-29.2-0.6-7-19.7 0.1-8.3z"/><path fill-rule="evenodd" class="a" d="m2086.2 700.8c28 0 50.8 14.7 50.8 32.8q0 1.9-0.4 3.7-3.2 0.7-6.5 1.3 0.3-1.6 0.3-3.3c0-15.3-21.1-29.7-44-29.7-22.8 0-44.2 14.2-44.2 29.5q0 1.8 0.4 3.6-3.4-0.6-6.9-1.3-0.3-1.9-0.3-3.8c0-18.1 22.7-32.8 50.8-32.8z"/><path class="a" d="m2041.6 40.8c-0.7-11.6-14.1-31.3-28.7-32.9-5.6-4.5-29.5-0.2-36.8 6.4-12.1 9.4-19.4 31.9-25.6 50.9-6.8 20.8-15.7 46.2-31.6 67.4-18.1 13.9-30.4-10.2-37.9 20.6-1.7 4.1-0.6 11.6-3 13-2.5 1.5-8.5-3.1-15-2.6-17.1-5.6-20.3 6.4-23.1 10.8-1.9 3.1 0.5 9-2.8 10.9-7.4 4.3-20.1 3-27.5 2.7-7.2-0.3-24.2 1.3-32.1 16-4.2 7.8-4.9 17.1-2.3 25 2.2 6.8 18.2 18.4 26.5 20.6 6.1 2.5-4.4 3.4-7.2 2.4-3.4-1.3-8.1-3.5-12-5.2-12.1-5.3-25.9 1.5-39.5 0.5-37.1 1.9-88.1 5.1-134.2 21.9-45.5 16.6-92.9 47.2-121.9 105.6-3.7 7.4-11.7 26.7-13.3 48.5 9-14.5 19.9-24.2 34-33.4-13.9 12.3-29 35.9-36.7 54.4-6.4 15.1-9.4 39.9-0.3 57.6 1.4 24-8.5 35-12.7 58.6 0 0 4.6 10.2 3.2 24-1.6 16.7-10.9 37.9-9.9 43.8-20.8-30.5-23.2-30.3-11.3-65.4 1.7-5.1 18.7-22.7 16.3-63.7-0.6-11.1-1.2-22.2-1.3-33.6v-0.1-2.9-0.1c0.1-17.4 2.3-32.1 6.4-46.3 4.1-14.2 10-27.8 17.6-43.1 31-62.4 77.8-95.3 126.5-113.1 48.2-17.6 97.8-20.3 135.9-22.2 15.6-0.8 19.1-20.1 24.6-30.3 12.3-22.8 28.2-28.9 41-28.3 10.4 0.4 19.7 0.3 25.5-9 3.4-6.1 6.4-12.2 17.4-14 8.5-1.4 17.5 4.2 21-5.1 2.6-6.8 5.6-14.8 16.3-19.7 5-2.4 9.5-3.5 13.8-4.5 5.2-1.3 9.9-2.4 12.7-5.7 15.7-17.8 22.7-39.3 29.1-58.8 6.9-21.2 13.1-40.3 28.8-52.3 5.8-4.5 12.6-7.6 19.9-9 8.3-1.8 17.2-1.4 25.5 1.3 8.4 2.7 16.1 7.7 22.1 15.2 4.8 6 8.5 13.5 10.4 22.6l1.1 7.7c0.6 5-0.3 5.8-4.2 2.9-6.5-4.8-10.9-1.5-16.2-6-5 4-4.9 14.2-11.8 10.7-2.2-1.1 3.3-4.6 0-11-6.6-12.7-21.3-10.9-24.6-1.4-4.9 14.6-6.5 48.6-10.4 72.6-2.4 14.6-4.6 27.8-6.9 36.6-9.3 35.6-35 40.6-54 57.8-10.8 9.8-6.3 22.4-8.8 34.6-1.9 9.3-16.7 23.3-39.5 25.9-1.7-0.7 18.6-11.7 26.4-20.8 5.7-6.7 6.4-15.1 6.3-17.9-0.5-10.4 0.5-17.2 9.6-25.4 12.6-11.4 38.2-25.8 46.2-38.8 16.9-27.8 14.7-69.9 20.4-101.5 3.2-17.6 7.5-31.3 16-35 18.6-8.1 31.1 14.8 42.6 9.6z"/><path class="a" d="m1470.7 500.5c8.2 18.6 14.5 51.6 10.6 66.8-3.8 14.9-9.7 29-16.1 44.2l-0.1 0.1c-2.8 6.8-3.9 14.5-4.1 22-0.2 2.9-0.8 7.3 7.2 8.4 0 1.7-7.4 3.7-7.7 5.3-1.2 6.1-4.4 11.7-5.7 16.7l-0.9 3.2c-2.4 8.7 7.1 9.1 9.4 9l34.5-2.9c0.6 2.6 18.9 5.4 15.4-7-1.5-5.4-7.1-11.7-15.1-8.7-0.9-4.2 20.1-7.4 20.5 13.4 0 4 12.2 3.5 12.2-0.6-2.3-15-6.3-19-15.2-15.3-0.7-1.3 3.2-5.2 2.7-6.4-1-2.5-6.4-2.6-7.1-5.3 15.9-13.8-3.9-16.1-2.1-20.5 8.9-21.6 16.6-35.6 31.5-50.3 6.8-6.7 15.4-14.7 20.9-24 4.1-6.8 7.1-15.3 9.9-34.1 7-21.6 27.1-85.8 50.5-93.3-2.9 3.3-6.4 9-10 15.6-1.7 3.2-3.4 6.6-5 10.1-7.1 15-12.8 31.6-10.8 37.7 1.5 4.5 4 10.9 3.4 15.1-0.2 1.6 3.7 6.8 2.3 5.8-9.9-7.7-21.2 6.6-21.1 14.4-2.3 32.9-4.7 24-36.4 57.4-7 7.4-10.3 15.9-15 24.1-4.8 8.4-6.4 20.7-5 31.8 0.2 2.3 0.7 4.6 1.2 6.7 0.5 2 1.1 4 1.9 5.8q0.6 1.5 1.2 2.6l1.3 2.3c3.9 7.1 6.7 12.3 6.9 17.1 0.3 9.3-5.4 13.3-21.8 13.8l-53.2 1.9c-13.4 0.5-17.7-2.2-18-10.7-0.1-2.9 0.6-5.7 1.7-9.5 0.5-1.8 0.6-2.4 0.8-3.1 1.2-4.4 4.7-10.7 4.5-17.5-0.6-19.1 4.7-34.8 10.9-50.6 9-23.1 18-42.8 9-91.5z"/><path class="a" d="m1618.4 538.1c8.4 19.9 19.3 48.1 8 63-4.1 8.4-11.3 11.1-8.3 20.9 3.1 6.3 22.4 32.9 13.9 38.2q-1.9 1.2-4.4 1.3c-26 0.5-111.4 19.3-69.4-31.9 11-17.6-5.8-35.6-17.2-48l8.2-8.9c10.3 14.9 26.7 36.9 18.1 55.9-0.7 1.6 5.4 2 4.3 3.7-0.5 0.8-8 2.8-8.4 3.7-15.7 28.6 25.3 19.7 41.9 19.6-5.7-5.4-5.1-10.9 0.1-16.3-2.8 13.3 10.5 18.6 23.1 16.8 4.9-11.8-19.9-20.2-23.6-28 0 0 1.8-12.7 0.6-13-21.9-6.5 2-5.6 5-6.9 24.6-10.5 2.2-58.5-7-72.5l1.4-0.9c4.3 1.4 9.1 3.8 13.7 3.3z"/><path class="a" d="m1576.1 533.4c21.9 5 56.4 6.7 82.5-4 26.4-10.8 39.6-19.9 73.9-44.6 0.9-0.5 10.3-9.4 11.2-10l4.8 9.4c-38.8 27.1-58.2 38.3-86.4 49.9-29.1 11.9-62.8 9.8-88 4.1z"/><path fill-rule="evenodd" class="a" d="m1595.3 469.2c5.2 62.9 66 36.3 120 17-26.6 23.5-102.4 49.3-128.5 4.8 0 0 9-22.3 8.5-21.8z"/><path class="a" d="m1489.2 384.4c11.4-30.9 40.7-63.2 68.6-80.6 39.4-24.6 91.7-41.2 126.2-46.3-43.7 16.4-81.6 28.9-120.7 48.7-40.5 20.5-55.2 59.7-74.1 78.2z"/><path fill-rule="evenodd" class="a" d="m1824.1 343.1c0.1 4.9 12.7 49.9 12.7 54.7 0.1 47.1-3.9 90.7-16.3 134.9-1.1 4.1-5.5 19.7-8.4 34.9-4.1 21.4-4.3 37.9 0.1 48 10.6 8.4 17.3 14.4 18.1 21.7 0.9 8.1 1.7 11.7-3 13.6q-0.4-0.6-0.7-1.2h-80q1 2.3 2 4.5c-4.8-0.4-8.1-1.5-8.8-3.9 0-0.1-3-11.7 3.6-22.9 6-18.2 6.5-41 3.9-67.3-2-20.5-2.3-47.1 0.9-63.5-5.6-3.7-13.7-23.8-5.4-61.1 4-17.8-0.1-35.5 0.7-42.4 5.7 13.5 7.8 37.6 4.7 59.6-1.7 11.4-1.8 19.2 2.9 30.6 9 13.1 23.4 3.5 22.2-18.8 8.2 31-12.5 33.6-18.8 34.2-3.1 16.2-1.1 66.6 1.6 87.7 0.5 5.8 1.4 10.9 1.8 16 0.7 8.4 9 11.5 8.9 12.8-0.1 2.3-9.1 1.3-9.7 3.8-4 3.9-4.9 8.1-7.3 12.8-3.6 6-0.8 12 1.8 14.6 4.3 4.5 31.3 1.9 37.4 0.9 25.5-0.6 16.2-18.6 8.6-24.5 6.2 1.7 21.3 11.6 11.4 23 11.5 2.9 14.5 0.9 16-3-4.1-21.8-17.5-15.7-21.1-20.2-2.3-3-3.4-9.3-3.4-17.5-0.1-8.7-7.7-10.3-5.6-11.3 6.1-2.6 6.6-7.3 6.8-9.7 1.4-12.7 3.9-26.7 6.7-39.1 1.3-5.6 2.6-10.9 3.9-15.6 1.4-4.8 2.7-9 3.9-12.2v-0.1c7.8-20.7 13.3-90.7 10.5-119.3zm-7.9 174z"/><path class="a" d="m1853.6 348.9c24.2 35.2 47 75.2 77.1 103.8 14.9 14.2 37.4 35.2 40.5 48.6v0.1c1.5 6.4 1.2 16 1 25.8-0.2 11.5-0.5 22.6 0.2 26.1l1.5 0.2q1.6 2.2 2.8 4.5 1.2 2.3 2 4.5c9.2 24-6.9 21-21.1 21.7-8 0.4-17.8 1-25.8 1-15.6 0-28.9 0.8-29.9-5.4v-0.1l-0.7-1.7c-2.6-12.6 5.1-18.3 9.3-25.2 1.6-7.8-1-22.5-3.9-25.7v-0.1c-0.4-0.4 0.1-3.3-1.1-4.3-11.5-10.9-25.7-24.6-38.3-35.1-5.7-4.8-14.5-12.1-19.8-13.1-5.3-1-11.2-1.5-18.5 1.3l-4.7-5.2c10.1-3.9 18.6-4.9 26.7-3.4 8 1.6 15.2 5.6 22.8 12 10.8 9 22 23.1 31.4 31.6 1.8 1.5 7.2 4.4 8.6 5.8 1.5 1.3 3.3 0.1 4.1 1 3.1 3.6-1.8 12.6-1.2 19.9 0.7 8.8-1.3 9.1 4 19.3-6.9 3.4-13.7 7-11.7 16.7 2.5 12.4 33.1 6.2 40.2 6.2 10.8 4 1.8-7.8 7.1-11.3 3.6 15.1 12.8 8.2 15.6 8 9.6-4.7 0.6-19.2-14-21.4 9.2-7.6 5.4-14.7-0.3-17.4 9.1-1.4 9.1-31.6 0.7-42.2-14.7-18.5-22-27.4-34.8-39.6-4.2-4-16.8-20.9-21.8-21.9-8.3-1.8-8.9 16-10.8 5.7-1.7-8.4 2-13.1-1.2-21.4-8.1-21.1-26.5-45.1-37.6-61.2z"/><path fill-rule="evenodd" class="a" d="m1879.1 324c0 0-22.3 8.3-24.7 27.6-2.3 19.3-22 51.3-22 51.3-6-26.1 17.2-34.4 15.9-52-0.6-8.2 5.6-17.7 9.8-21.6z"/><path fill-rule="evenodd" class="a" d="m1826.4 282.2c-2 12.4-11.6 25.1-7.4 36.5 11.6 31.2 2.4 35.7 5 53 3.6 23.9 4.3 34.8-16.1 18.9-11-8.6-15.3-25-41.2-29.1-49-7.7-52.8-27.1-52.7-27.2l8.6-7.3c0.1 4.2 2.1-2.7 3.3 0.3 4.3 11.7 15.1 16.1 24.5 21 21.3 11.1 39.3 11.3 65.6 37.3 4-15.8 2.1-34.2-2.8-59.9-2.9-15 7.7-25.6 13.2-43.5z"/><path fill-rule="evenodd" class="a" d="m1858.3 607.7c73.5-56.4 148.4-26.1 205.9 44.4 2.3 2.8 1.1 4.7 3.4 7.7-59.6-70-140.3-107.8-209.9-44.3-19.6 17.9-35.1 13.5-52.8 18.9 24.9-19.5 35.3-12.8 53.4-26.7z"/><path fill-rule="evenodd" class="a" d="m1804.4 627.9c17.1-5.6 31.1 26.1 55 9.2-6.2 15.1-5.8 26.2 0.1 40.5 0.2 0.6 8.3-61.6 61.4-76 53.2-14.4 102.4 11.8 143.8 60.8 2 2.3 0.9 3.8 2.9 6.3-44.1-50.1-95.9-77.1-150.9-55.9-36 13.8-48.1 43.5-53.8 76.6-1.5 8.4-19.1-19.4-10.1-42.9-30.8 6-45.7-17.7-48.4-18.6z"/><path fill-rule="evenodd" class="a" d="m2063.8 678.4c-16.7-22.5-55.8-51.3-85.7-56.7-26.1-4.7-49.7 6.4-52.9 39.6-8.7-4.8-13.4 2.7-23-7.2-1.6 7.1-5.2 12.2-10 17.6-1.6 1.3-3.5 2.8-5.6 4.7l-7.9 7.6c-8.5-15.1-9-31.3 8.1-52.6-9.2 18.5-11.9 33.1-4.8 38.6 8.7-1.9 14.9-12.2 19.4-24.6 5.5 9.5 13 5.9 20.2 8.7 4.9-32.3 30.8-41.6 57-36.8 28.1 5 73.2 35.3 84.4 58.7 0 0-0.4 2.8 0.8 2.4z"/><path class="a" d="m2044.7 679c-8.5 4.2-0.7 1.1-4.4 0.2-10.8-2.6-30.7-6.5-48.1-5.1-19.5 1.5-20.5 15-39.3 18.8-5.9 1.2-13.1 1.8-19 0.2q-7.1-5.6-13.7-11.7c-3.5-8.8 0-19.6 11.8-22.8 20.9-3.6 22.6 18.5 14.2 19.6-0.2-9-5.8-14.8-14.4-12-12.7 4.2-10.4 15.8-0.3 20.8 6.3 3.1 14.9 2.7 21.6 1.3 20.9-4.2 19.2-20.5 38.9-20.5 25.4 0 56.4 10.3 57.1 9.9z"/><path fill-rule="evenodd" class="a" d="m2054.7 678c-17.4-15.9-38.3-28.9-64-29.3-19.1-0.2-30.1 6.4-38.3 26.7-1.6 3.9-4.1 8.6-11.2 4.8 1.7 0.5 4.2-1.4 5.7-3.6 2-2.9 3.3-6 4.1-8.4 7.9-22.8 26.6-24.4 39.4-24.1 25.9 0.7 46 15 64.6 29.7z"/><path fill-rule="evenodd" class="a" d="m1976.7 677.2c-9.5 9.6-9.6 22.6-4.9 29.8 8.1 12.5 29.1 11.6 29.9-2.8 2.1-12.4-17.8-19.8-20.3-3.9-1.3-7.1 3.5-12.8 9.6-14.1 14.1-3.1 22.1 10.7 17.1 22.7-6.8 16.3-27.8 15-36.6 6.7-9.9-9.2-10.9-26.4 5.2-38.4z"/><path fill-rule="evenodd" class="a" d="m2032.4 614.7c17.3-9.8 25.6-6.2 36.5 1.3 0-11.3 6.7-19.1 17.7-26v4.7c-6.2 4.8-11.9 13.9-12.6 21.8-1.7 19.7 3.9 46.8 3.9 49.3-1.4-1.2-5.3-35.4-12.6-43.7-6.1-6.9-12.7-12.7-23.9-5.4 20.7 8.9 31.4 63.7 29.3 84.8 0 0.8-2.3 2.8-4.3 2.4 7.1-21-12.2-77.3-34-89.2z"/><path fill-rule="evenodd" class="a" d="m1453.5 758.7c14.6-15.4 32.5-25.3 57.1-5.8 87.3 69.1 187.2 29.2 261.9-47-2.9 3.2-1.3 5.3-4.2 8.4-72.1 76.7-166 109.7-258.1 48.3-22.7-15.2-33.3-10.8-56.7-3.9z"/><path fill-rule="evenodd" class="a" d="m1491.7 719.8c-6.5-13.9-2.5-15-9.9-32.5 16.1-0.7 30 18.8 49.3 37.2 14.2 13.5 32.1 25.9 51.2 31.7 62.7 19.3 123.3-4.2 175.2-46.4 5-4 9.7-8.2 14.2-12.5q0.6 1 1.3 2.1c-4.3 4.1-8.7 8.2-13.3 12.2-50.3 43.5-112.6 65-168.8 52.8-28.1-6.1-49.3-21.9-65-35.1-21.4-18.1-32-33.4-31.9-33.1 2.8 16.1 1.6 17.5 9.5 32.6-37.6-11.6-44.2 9.5-49.1 29.5-3.8-10.4-1.2-44.5 37.3-38.5z"/><path fill-rule="evenodd" class="a" d="m1485.1 688.3c4.8-1.7 20.2-0.9 33.8 10.6-6-13.9 10.5-22.5 19-23.3 5.6 16 18.1 43.7 59.7 57.5 59.2 19.7 116.5-6.5 165.2-50.9q0.6 1.1 1.2 2.2c-46.8 45.6-105.4 70.5-158.2 58-61-14.4-68.3-58-69.1-57.8-9.1 2.1-20.8 5.5-13.5 20.6-7.2-2.5-20.8-14.6-24.9-8.2z"/><path fill-rule="evenodd" class="a" d="m1756.3 670.2q-0.2 0-0.4 0.1c-17.2 8.8-42.7 13.6-61.3 10.6-29.7-4.8-47.1-23.2-42.9-39.3-8.2-0.1-13.7 10.5-15.1 19.5-2.4-22.4 14.1-25.3 20.5-25.3-4.6 18.4 11.3 36.8 36.1 41.3 18.5 3.4 44.6-1.8 61.8-9.5q0.7 1.3 1.3 2.6z"/><path fill-rule="evenodd" class="a" d="m1742.5 700.6c-8.9 5.5-22.5 13.2-33.1 16.7-26.9 9.1-62 2.8-76.4 0.1-5.7-1.1-12.9 4.6-15.5 9.9-5.6-1-14.3-16.3 0.4-30.5 4.4 1.2 6.5 1.3 6.8 2.1-3.2 1.2-5.7 2.2-7.8 4.5-5 5.4-4.8 12.8 1.1 14.4 9.5-10.8 21.8-5.8 33.9-2.4 15.8 4.4 38.8 4.8 57.1-0.5 11.4-3.3 23.6-10.9 33.9-16.1 1.8 1.1 0.2 1.5-0.4 1.8z"/><path fill-rule="evenodd" class="a" d="m1625.3 698.7c-16.7-10-14.1-15.2-23-24.9 5.8-0.4 11 2.6 16.2 6 42.3 28.3 96.6 24.6 142-1.7q-0.8-1.5-1.6-3c-28 15.5-56.5 22-80.1 21.1-33.5-1.4-69.3-40.9-86.6-24.1 7.6 4.6 12 22.4 26 25.8z"/><path fill-rule="evenodd" class="a" d="m1650 673c-9.7-6.7-12-10.4-33.6 0.6l-6.2-4.2c20.3-10 26.6-11.7 39.8 3.6z"/><path fill-rule="evenodd" class="a" d="m1525.8 650.9c38.7 17.5 94.7-8 113.3 5.7-69.4 32.2-96.2 37.2-113.3-5.7zm94.6 9.9c-12.8-6.9-56.7 7.8-83.5-1.1 11.8 21.7 35.4 17.5 83.5 1.1z"/><path fill-rule="evenodd" class="a" d="m1794.7 730c3.1 40.3 15.4 79.5 49.9 130.1 4.9 7.1 7.9 20.3 7.6 31.7 10.6-3 30.1-4 17.3-33.7 13.6 11.8 29.1 21 43.6 18.2-0.2-15.9-12.2-26.2-24-37.2 5.5 0.2 10.3-1.7 12.6-7.4-3-1.4-16.5-1-27.9-6-21.1-9.4-48.8-33.3-51.8-64.6q2.7 2.7 5.4 5.4c10.8 28.6 32.1 44.3 50.8 52.9 12.6 5.8 25.1 7 30.2 8.5-3 8.5-6 12.7-9.7 13.4 12.7 10.8 22.2 21.2 22.8 38.7-13.8 8.6-30.4-1.3-42.2-7.3 2.1 17.6-16.4 25.6-33.8 24.3-1.5-15.8-0.6-21.1-6.7-30.5-35.6-54.2-47-91.1-49.9-143.9q2.9 3.7 5.8 7.4z"/><path fill-rule="evenodd" class="a" d="m1883 854.9c-37.5-19.7-69.5-51-78.2-112.5q3.3 3.8 6.7 7.6c4.3 51.6 36.9 80.6 71.5 104.9z"/><path fill-rule="evenodd" class="a" d="m1728.6 801.4c-10.4 2.3-26.5-6.9-23.9-23.3 1.9-12 14.3-19.1 23.3-9.7 3.9 4.1 4.7 10.9 0.4 16 5.6-13.9-12.5-17.8-16.8-6.9-6.1 11.9 8.9 22.9 20.7 16.9 6.8-3.4 12.9-13.8 10.4-26.1 6.2 17.4-2.6 30.6-14.1 33.1z"/><path fill-rule="evenodd" class="a" d="m1775.3 703.1c-10.8 14.1-19.7 28-24.4 51.1-1.6 7.4-1.5 17.3-1 27.8 0.5 11.6 2.2 23.7 1.9 35.2-0.1 6.3-2.1 12.4-11.3 14.1 8.2-4.5 8.3-13.2 6.8-21-2.2-11.2-4.8-21.2-5.5-32.6-0.6-10.5 0-20.4 3.2-29.5 7.2-20.3 20.8-37.1 29.5-46.4q0.4 0.7 0.8 1.3z"/><path fill-rule="evenodd" class="a" d="m1784.9 717c-4.8 13.2-4.8 29.4 1.2 49.5q0.7 2.4 1.5 4.9c0 0.4 2.1 10.1-0.3 6.7-5.8-8.2-10.9-30.9-10-41.5 0.7-7.3 3.8-14.8 6.9-20.6z"/><path fill-rule="evenodd" class="a" d="m1795.4 778.5c-7 5.8-11.5 8.2-18.8 6.6 4.7 2.3 9.6 6.8 11.8 16.6-4.5 1-16.7 5.7-22 1.2 0.8 9.9-2.9 20.3-8.5 26.9-5.6 6.6-12.8 10.5-18.4 9.5 0.9-0.3 1.3-3.5 2.2-3.5 11.2-0.8 14.6-5.4 17.2-14.1 2.4-8.2 0.4-20.3-2.7-34.7 9.1 13.8 18.6 12.2 24 9.3-3.2-10.7-8.6-9.9-13.8-21.1 7.1 0.9 14.1 8.4 21.5 2.7-2.6-4.6-5.7-14.4-3.9-19 3.8 13 7.9 17.4 11.4 19.6z"/><path fill-rule="evenodd" class="a" d="m1772.4 728.9c-5.8 16.2-7.4 37.9 0 48.6 1.1 1.6 2.2 8.3 2.7 10 0 0.3-6.7-7.7-8.1-11.1-6.5-15.8-1.3-34.3 4.3-47.2z"/><path fill-rule="evenodd" class="a" d="m1748.1 734.3c-9.7 10.1-18.3 25.6-16.4 35.9 0.3 1.6-1.2 6.9-1.3 8.3-0.2 0.3-4.5-9.9-4.3-12.9 0.5-13.8 12.6-23.7 21.1-31.4z"/><path fill-rule="evenodd" class="a" d="m1759.9 806.6c18.3-18.5 32.2 18.2 54 9-14 32.4-42.1 17.1-54-9zm47.9 14.1c-12.9 4.9-32.4-17.8-40.8-11.4 5.6 13.1 22.2 27 40.8 11.4z"/><path fill-rule="evenodd" class="a" d="m1748.1 652.9q3.5 8 7.4 15.8l-14.5 5.4-23.8 5.5c0 0 12.1-4.5 10.6-19.4-1.5-15 14.7-14 14.2-15.5-0.2-0.6 2.7 3.4 6.1 8.2z"/><path fill-rule="evenodd" class="a" d="m2069.6 687.8c-0.4 0.4-1.3 3.2-1.6 2.6-12.1-25.6-36.2-7.6-27.8 8.1 4.6 8.4 18.7 8.4 19.9-0.7 1.4-8-11.3-11.7-12.9-1.4-0.8-4.6 2.2-8.3 6.2-9.2 9.2-2 14.3 7 11.1 14.7-4.4 10.6-20 10.5-25.9 3.7-12-13.9-3.7-31 13.7-31.7 14.5-0.5 16.5 14.6 17.3 13.9z"/><path fill-rule="evenodd" class="a" d="m2027.1 734.9c-18.7 0.3-26.3-17.7-14.4-31.5 5.9-6.8 21.5-7 26 3.6 3.2 7.8-2.7 16.7-11.9 15.1-6.2-1-8.9-5.3-8.1-9.9 1.7 10.3 15.4 8 14-0.1-2.2-9.8-14.5-9.1-18.7-2.1-6.3 10.3 3 23.8 16.6 21.2 8.6-1.7 2.7-7.6-3.6-4.6 7.1-11.4 29.3 7.7 0.1 8.3z"/><path fill-rule="evenodd" class="a" d="m2086.2 742.6c47 0 90.8-13.4 127.9-36.6q10.7-6.7 20.8-14.6 10-7.9 19-16.7h0.1c6.7-6.5 10.8-10.3 16.1-10.7 5.2-0.4 10.2 2.6 18.2 9.8l0.1 0.1 13.5 13 0.8 0.7c0.8 0.8 1.7 1.6 2.2 2.1 6.9 6.8 9.9 12.9-5.6 28.1-22.9 22.5-49.4 41.5-78.6 55.9q-8.6 4.2-17.3 7.8c-36 15.1-75.6 23.4-117.2 23.4-59.9 0-115.6-17.2-162.6-47q-13.7-8.7-26.4-18.7c-8.4-6.7-16.4-13.9-24.1-21.4-15.5-15.2-12.6-21.3-5.6-28.1 0.7-0.8 1.5-1.4 2.2-2.1l0.7-0.7 13.6-13 0.1-0.1c8-7.2 12.9-10.2 18.2-9.8 5.2 0.4 9.4 4.2 16.1 10.7 18.1 17.6 39 32.3 62 43.6q6.9 3.3 13.6 6.1c28.4 11.8 59.5 18.2 92.2 18.2zm0 7.3c-33.7 0-65.8-6.7-95-18.8q-7.4-3-14.1-6.3c-23.7-11.6-45.2-26.8-63.9-45-5.5-5.3-8.8-8.4-11.5-8.6-2.8-0.2-6.3 2.3-12.6 7.9l-13.6 13.1-0.7 0.7c-0.8 0.7-1.6 1.4-2.2 2-3.7 3.7-5.1 7.2 5.7 17.7v0.1c7.5 7.3 15.3 14.3 23.6 20.8q12.3 9.8 25.7 18.3c45.8 29.1 100.2 45.9 158.6 45.9 40.5 0 79.2-8.1 114.3-22.8q8.7-3.6 16.9-7.7c28.5-14.1 54.3-32.5 76.7-54.5 10.7-10.6 9.4-14.1 5.6-17.8-0.8-0.8-1.4-1.4-2.1-2l-0.7-0.7h-0.1l-13.5-13.1c-6.3-5.6-9.9-8.1-12.6-7.9-2.8 0.2-6.1 3.3-11.5 8.6h-0.1v0.1q-9.4 9.1-19.7 17.2c-6.8 5.3-13.9 10.3-21.4 15-38.2 23.9-83.4 37.8-131.8 37.8z"/><path fill-rule="evenodd" class="a" d="m2086.2 875.1h-0.1c-38.4 0-75.4-5.8-110.3-16.5-17-5.2-33.5-11.6-49.4-19.1-81.8-38.5-147.2-105.7-183.2-188.4l-2.2-5h87.8l1 1.8c7.1 12.5 15.1 24.4 23.8 35.5 8.8 11.2 18.4 21.8 28.7 31.7 52.9 50.5 124.7 81.5 203.9 81.5 36.6 0 71.7-6.6 104.1-18.8 10.6-4 20.8-8.5 30.7-13.6 51-26.2 93.3-66.7 121.6-116.3l1-1.8h87.7l-2.2 5c-8 18.5-17.5 36.2-28.3 52.9-10.8 16.7-22.9 32.6-36.2 47.4-68.4 75.9-167.8 123.7-278.4 123.7zm-0.1-7.2v-0.1h0.1v0.1c108.4 0 205.8-46.9 272.8-121.4 13.1-14.4 24.9-29.9 35.6-46.4 9.6-14.9 18.1-30.5 25.5-46.8h-72.2c-28.9 49.9-71.8 90.8-123.5 117.3-10.2 5.3-20.7 9.9-31.5 14-33.1 12.4-69.1 19.3-106.7 19.3-81.2 0-154.8-31.9-209.1-83.7-10.5-10-20.3-20.9-29.3-32.3-8.6-11-16.4-22.6-23.4-34.6h-72.1c35.7 78.8 98.8 142.7 177.3 179.7 15.5 7.3 31.7 13.6 48.4 18.7 34.2 10.5 70.5 16.2 108.1 16.2z"/><path fill-rule="evenodd" class="a" d="m2430.4 644.7c-0.6 1.5 15.7 0.5 14.2 15.5-1.6 14.9 10.6 19.4 10.6 19.4l-23.8-5.5-17.3-6.5c0 0 16.8-24.4 16.3-22.9z"/><path fill-rule="evenodd" class="a" d="m1783.7 679.8l23.5-14.4 10.8 17.1-3.9 2.5-7.9-12.5-5.3 3.2 7.4 11.6-3.9 2.4-7.4-11.6-6.4 4 8.2 12.8-4 2.5zm21.2 16.4l3.7 4q-1.9 2-2.1 3.9-0.2 1.9 1.3 4 1.6 2.1 3.4 2.5 1.7 0.5 2.9-0.4 0.8-0.6 1-1.4 0.3-0.9-0.2-2.3-0.3-1-1.6-4.3-1.8-4.2-1.5-6.6 0.3-3.3 3-5.2 1.7-1.3 3.9-1.4 2.2-0.1 4.3 1.1 2.1 1.3 4 3.8 3.1 4.2 2.8 7.6-0.4 3.4-3.4 5.7l-3.4-4.3q1.5-1.5 1.5-3 0.1-1.5-1.3-3.3-1.4-2-3-2.5-1.1-0.3-2 0.3-0.8 0.6-0.8 1.6-0.1 1.4 1.5 5.2 1.6 3.8 1.9 5.9 0.3 2.2-0.5 4.1-0.8 1.9-2.9 3.4-1.9 1.4-4.4 1.5-2.4 0.2-4.7-1.1-2.2-1.4-4.3-4.3-3.1-4.1-2.8-7.8 0.3-3.6 3.7-6.7zm13.9 32.2l17.6-14.6-5.3-6.2 3.6-2.9 14.2 16.6-3.6 2.9-5.3-6.2-17.6 14.6zm32.3-4.7l7.1 7.2q2.5 2.4 3.3 4.1 1.2 2.2 1.1 4.7-0.1 2.5-1.4 4.9-1.3 2.5-4.1 5.1-2.4 2.3-4.8 3.4-2.9 1.4-5.6 1.3-2-0.1-4.3-1.3-1.7-0.9-3.9-3.1l-7.3-7.4zm0.5 7.1l-13.2 12.6 2.9 2.9q1.7 1.7 2.6 2.2 1.2 0.7 2.4 0.8 1.2 0.1 2.9-0.8 1.8-0.8 4.1-3 2.3-2.2 3.1-3.8 0.9-1.6 0.8-2.9 0-1.4-0.8-2.8-0.6-1-3-3.4zm0.7 32.2l3.5-3.9 3.9 3.5-3.5 3.8zm34.5-6.7l8.7 6.7q2.6 2 3.7 3.2 1.1 1.2 1.6 2.6 0.4 1.5 0.2 3.1-0.2 1.6-1.3 3-1.2 1.5-3 2.2-1.9 0.6-3.8 0.1 1.6 2.1 1.5 4.3 0 2.2-1.5 4.1-1.1 1.5-2.9 2.3-1.8 0.9-3.7 0.8-1.8-0.1-3.7-1.3-1.2-0.7-5.5-3.9l-7.4-5.7zm1.6 6.9l-4 5 2.9 2.2q2.6 2 3.3 2.4 1.2 0.7 2.4 0.6 1.1-0.1 2-1.2 0.7-1 0.7-2-0.1-1.1-1.1-2.1-0.6-0.5-3.7-2.9zm-6.8 8.5l-4.5 5.8 4.1 3.1q2.3 1.8 3.1 2.2 1.1 0.6 2.3 0.3 1.1-0.2 2-1.3 0.8-1 0.9-2 0-1-0.6-2-0.7-1-3.7-3.4zm18.1 26.8l6.3-9.6 0.3-18.7 5.4 3.6-0.4 12.5 11.3-5.6 5.4 3.4-17.3 7.8-6.3 9.6zm42.1 11.8l2-4.2 10.9 5.2-4.9 9.8q-2.3 0.7-5.9 0.4-3.5-0.3-6.6-1.7-3.9-1.9-6-4.9-2.1-3-2.1-6.7 0-3.7 1.8-7.2 1.9-3.8 5-6 3.1-2.2 7-2.3 3-0.1 6.6 1.6 4.6 2.3 6.3 5.4 1.6 3.2 0.7 6.9l-5.4-1.5q0.3-2-0.6-3.8-0.9-1.7-3.1-2.7-3.3-1.6-6.3-0.5-2.9 1.1-4.9 5.2-2.2 4.3-1.3 7.4 0.9 3.2 4.1 4.7 1.6 0.8 3.4 0.9 1.9 0.2 3.5-0.2l1.5-3.1zm16.5 3.6q1.5-3.9 3.7-6.1 1.7-1.6 3.8-2.5 2.1-1 4.2-1.1 2.8-0.1 6 1.1 5.7 2.2 7.8 7 2 4.7-0.4 11-2.4 6.1-7.1 8.3-4.8 2.2-10.5 0-5.8-2.1-7.8-6.9-2.1-4.7 0.3-10.8zm5.4 1.9q-1.6 4.3-0.5 7.3 1.2 3 4.3 4.1 3.1 1.2 6-0.2 2.8-1.5 4.6-5.9 1.7-4.4 0.6-7.3-1.1-2.9-4.4-4.1-3.2-1.2-6 0.2-2.8 1.5-4.6 5.9zm27.3 23.2l-1.4-28.9 5.8 1.7 0.7 21.3 12.5-17.3 5.7 1.7-17.6 23.2zm19.5 5.6l4.8-26.8 20.3 3.5-0.9 4.5-14.7-2.5-1 5.9 13.7 2.4-0.9 4.5-13.6-2.3-1.4 7.2 15.3 2.7-0.8 4.5zm27 4.4l2.9-27.1 11.7 1.2q4.4 0.5 6.4 1.4 1.9 0.9 2.9 2.9 1 2 0.7 4.4-0.3 3.1-2.3 4.9-2.1 1.8-5.8 1.9 1.7 1.2 2.8 2.6 1 1.4 2.7 4.7l2.8 5.7-6.7-0.7-3.4-6.3q-1.8-3.4-2.5-4.3-0.7-0.9-1.5-1.3-0.9-0.4-2.8-0.6l-1.1-0.1-1.2 11.3zm7.2-15.1l4.1 0.4q4 0.4 5.1 0.2 1-0.2 1.6-1 0.7-0.7 0.8-1.9 0.2-1.4-0.5-2.3-0.6-0.9-2-1.3-0.6-0.2-4-0.5l-4.4-0.5zm22.4 18l0.9-27.3 5.5 0.2 10.7 18.6 0.6-18.2 5.2 0.2-1 27.2-5.6-0.2-10.5-18.1-0.6 17.7zm29.3 0.5l-1.9-27.2 8.3-0.5 6.4 18.2 3.6-18.9 8.4-0.6 1.9 27.2-5.2 0.3-1.5-21.4-3.9 21.8-5.4 0.4-7-21 1.5 21.4zm33.8-2.6l-4.8-26.8 20.3-3.5 0.8 4.5-14.7 2.5 1 6 13.7-2.4 0.8 4.5-13.7 2.4 1.3 7.3 15.3-2.6 0.8 4.5zm27-4.1l-7.2-26.3 5.3-1.4 15.7 14.7-4.8-17.5 5-1.4 7.2 26.3-5.4 1.5-15.5-14.4 4.7 17.2zm34.5-9.4l-7.5-21.4-7.8 2.6-1.5-4.3 20.8-7.1 1.6 4.4-7.8 2.6 7.5 21.4zm21.2-21.8q-1.8-3.7-1.9-6.8 0-2.3 0.8-4.5 0.8-2.2 2.2-3.7 1.8-2 4.9-3.4 5.6-2.6 10.5-0.7 4.9 1.8 7.8 7.8 2.8 6 1.1 10.9-1.7 4.9-7.2 7.4-5.6 2.6-10.5 0.8-4.9-1.9-7.7-7.8zm5.1-2.5q2 4.2 5 5.4 3 1.3 6.1-0.1 3-1.4 3.9-4.4 0.9-3.1-1.1-7.4-2-4.2-4.9-5.4-2.9-1.2-6 0.2-3.1 1.4-4.1 4.4-0.9 3 1.1 7.3zm30.2 1.1l-13.9-23.6 16.5-9.3 2.3 4-11.6 6.5 3.3 5.6 10-5.7 2.4 4-10 5.7 5.8 10zm30.9-18.5l-15.9-22.3 4.6-3.1 7 9.9 2.2-16.3 6.2-4.2-2.4 14.5 18.7 7.5-5.9 4-13.7-6.1-1.1 6.2 4.8 6.8zm23.9-16.9l-17.8-20.8 15.7-13 3 3.5-11.4 9.4 3.9 4.7 10.7-8.8 3 3.5-10.7 8.8 4.9 5.7 11.8-9.8 3 3.5zm21-17.3l-19.9-19 8.2-8.3q3.1-3.1 5-4 1.9-0.9 4.1-0.5 2.3 0.5 4 2.1 2.3 2.2 2.5 4.8 0.1 2.7-2 5.7 2-0.6 3.7-0.6 1.8 0.1 5.5 0.9l6.2 1.2-4.6 4.8-7.2-1.3q-3.8-0.7-4.9-0.7-1.2 0-2.1 0.4-0.8 0.4-2.1 1.8l-0.8 0.8 8.3 7.9zm-7.6-14.9l2.9-2.9q2.8-2.8 3.2-3.8 0.5-0.9 0.3-1.9-0.3-1-1.1-1.8-1.1-1-2.2-1-1.1-0.1-2.2 0.7-0.6 0.4-2.9 2.8l-3.1 3.1zm44.2-24.6l-4 4.6-6.3-2.1-7.2 8.3 3.4 5.7-3.8 4.5-14.3-25.7 3.8-4.4zm-15 0.8l-10.4-3.6 5.5 9.3zm18-4.7l-22.3-15.9 3.3-4.4 18.5 13.2 8.1-11.1 3.8 2.7zm27.8-40.6l-3.3 5.1-6.6-1.3-5.9 9.3 4.2 5.2-3.2 4.9-17.8-23.4 3.2-5zm-14.8 2.9l-10.7-2.1 6.7 8.4z"/><path fill-rule="evenodd" class="a" d="m1940 710.3l18.7 11.2q6.1 3.7 2.7 14l-0.7 1.9q-4.4 7.3-13.2 6.3l2.5 12-0.3 0.6-8.5-5.1-4.1-21.2 0.2-0.3 10.4 6.3q3.6 2.1 7.2-2.1 2.3-3.7-1.2-6.7l-12-7.3-13.6 22.7-0.9 0.2-5-3-0.2-0.9 17.1-28.4zm47.9 62.9l-19.3-7.4q-2.8-1.1-3.9-3.6-1.1-2.6-0.1-5.3l10-26 6.5 2.5-10 25.9 19.2 7.4 10-26 6.4 2.5-9.9 26q-1.1 2.7-3.5 3.9-2.5 1.2-5.4 0.1zm58.4-13.7l-13.6-2.6-5.3 27.3-6.7-1.3 5.3-27.3-13.5-2.6 1.3-6.8 33.8 6.6zm9.9-5l21.8 1.1q7.1 0.4 9 11.1l0.3 2q-0.5 8.5-8.7 11.8l7.9 9.4-0.1 0.7-9.9-0.5-13.5-16.9v-0.3l12.1 0.7q4.2 0.2 5.4-5.2 0.3-4.4-4.2-5.4l-14.1-0.8-1.3 26.4-0.7 0.6-5.8-0.3-0.6-0.7 1.8-33.1zm70.9 33.4l-20.6 1.8q-5.5 0.5-7-4-0.3-1.1-0.4-2.3l-1.9-20.8q-0.2-2.7 1.6-5 1.7-2.3 4.7-2.5l20.6-1.8q2.8-0.3 5 1.6 2.2 1.8 2.4 4.7l1.8 20.8q0.6 6.9-6.2 7.5zm-0.6-6.9l-1.8-20.8-20.6 1.8 1.8 20.8zm54-6.2l-4.2 1.2-28.5-15.4 6.2 21.8-6.6 1.9-9.5-33.4 4.1-1.2 28.6 15.3-6.3-21.7 6.6-1.9zm19.9-8l-6.4 2.4-12.4-32.4 6.4-2.5zm48.2-25.1l-8.2 4.6-16-5.8-3.6 16.7-8.3 4.5 6-23.1-22.8-7.2 8.2-4.6 16 5.7 3.6-16.6 8.2-4.5-5.9 23.2z"/><path fill-rule="evenodd" class="a" d="m2086.6 216.6c42.9 0 81.8 17.4 110 45.6 28.2 28.2 45.6 67.1 45.6 110 0 43-17.4 81.9-45.6 110.1-28.1 28.1-67 45.5-110 45.5-43 0-81.9-17.4-110.1-45.6-28.1-28.1-45.5-67-45.5-110 0-43 17.4-81.9 45.5-110 28.2-28.2 67.1-45.6 110.1-45.6zm98.7 56.9c-25.2-25.2-60.2-40.9-98.7-40.9-38.6 0-73.5 15.7-98.7 40.9-25.3 25.3-40.9 60.2-40.9 98.7 0 38.6 15.6 73.5 40.9 98.8 25.2 25.2 60.1 40.9 98.7 40.9 38.5-0.1 73.4-15.7 98.7-41 25.3-25.2 40.9-60.1 40.9-98.7 0-38.6-15.6-73.5-40.9-98.7z"/><path fill-rule="evenodd" class="a" d="m1941.4 348.9l90.7-1.9-62.4-61.5 3.5-3.3 64.4 61.6c1.1 4.1 0.5 6.8-3.4 9.6l-91.9 0.6zm290.7 42.3l-91 1.6 65.8 63.1-3.5 3.2-67.8-63.1c-1.1-4.1-0.5-6.8 3.4-9.6l92.2-0.3zm-56 98.4l-67.2-64.9 0.3 92.6-4.8-0.2-1.6-94.1c2-3.7 4.4-5.1 9.1-4.4l67.1 66.7zm26.7-205.7l-61.4 63.8 89.1-0.7-0.2 4.8-90.6 2c-3.7-2.1-5.2-4.4-4.4-9.2l63.2-63.6zm-202.2-30.1l63.7 61.4-0.6-87.6 4.5-0.8 2.3 90.1c-2.1 3.6-4.4 5.1-9.2 4.4l-64.8-63.7zm107.4-26.8l1.6 88.5 62.5-63.4 3.6 2.7-62.9 66.2c-4.1 1.1-6.8 0.5-9.6-3.4l0.1-90.5zm-139.4 230.9l63.3-65.6-89.2 0.6 0.2-4.8 90.7-2c3.6 2.1 5.1 4.5 4.3 9.2l-65.1 65.5zm96.2 59.5l-1.1-92.9-64.3 65.2-3.2-3.6 64.4-67.1c4.1-1.2 6.8-0.6 9.6 3.3l-0.4 94.1z"/><path fill-rule="evenodd" class="a" d="m2085.8 349.6c11.9 0 21.6 9.6 21.6 21.6 0 3.2-0.7 6.2-2 9-3.4 7.4-10.9 12.6-19.6 12.6-7.8 0-14.7-4.2-18.5-10.5-2-3.2-3.1-7-3.1-11.1 0-12 9.7-21.6 21.6-21.6zm-18.5 169.4v-136.7zm38.1-138.8v138.8z"/><path fill-rule="evenodd" class="a" d="m2059.3 519v-134.7q-1.2-2.5-2-5.2c-0.7-2.6-1.1-5.2-1.1-7.9 0-8.2 3.3-15.6 8.7-20.9 5.3-5.4 12.7-8.7 20.9-8.7 8.2 0 15.6 3.3 20.9 8.6 5.4 5.4 8.7 12.8 8.7 21q0 3.2-0.7 6.3-0.5 2.1-1.3 4.2v137.3h-16v-120.6c-3.6 1.5-7.5 2.4-11.6 2.4-3.7 0-7.2-0.7-10.5-2v120.2zm36.1-157.4c-2.4-2.5-5.8-4-9.6-4-3.7 0-7.1 1.5-9.6 4-2.5 2.4-4 5.8-4 9.6q0 2 0.5 3.7 0.5 1.8 1.5 3.3c1.2 2 2.9 3.7 4.9 4.8 2 1.1 4.2 1.8 6.7 1.8 2.7 0 5.2-0.8 7.3-2.2 2.2-1.4 4-3.4 5.1-5.8q0.6-1.2 0.9-2.7 0.3-1.4 0.3-2.9c0-3.8-1.5-7.2-4-9.6z"/><path fill-rule="evenodd" class="a" d="m195.9 1197.4h-65.2l-91-68.6v68.6h-39.3v-197.2h39.3v68.5l91-68.5h65.2l-141.8 98.7zm184.8 0h-156.2v-197.2h156.2v39.3h-116.9v39.7h116.9v39.3h-116.9v39.6h116.9zm40.7-195.5h123.6q40.3 0 54.4 60.1l2 11.1q0 48.4-45.7 69.6l47.4 51v3.7h-56.4l-81.7-91.4v-1.6h68.9q23.9 0 29.2-31.3 0-24.5-25.5-29.2h-80v149.8l-3.7 3.7h-32.5l-3.7-3.7v-188.1zm406.5 195.5h-39v-78.9h-117.2v78.9h-39v-157.9q0-16.5 10.6-27.9 10.6-11.4 28.4-11.4h117.2q14.1 0 26.6 12.6 12.4 12.6 12.4 26.7zm-39-118.3v-39.6h-117.2v39.6zm234.8 118.3h-156.2v-197.2h39.3v157.9h116.9zm220.8 0h-39v-79h-117.3v79h-38.9v-157.9q0-16.5 10.5-27.9 10.6-11.4 28.4-11.4h117.3q14.1 0 26.5 12.6 12.5 12.6 12.5 26.7zm-39-118.3v-39.6h-117.3v39.6zm310.8 118.3h-139.8v-39.3h139.8v-39.7h-103.8q-14.8 0-24.9-7.7-10-7.7-13.1-20.8-1.3-5.1-1.3-10.8v-39.6q0-15.5 11.1-27.4 11.1-11.9 28.2-11.9h129.3v39.3h-129.3v39.6h103.8q16.8 0 27.9 11.4 11.1 11.5 11.1 27.9v39.7q0 16.8-10.1 27.5-10.7 11.8-28.9 11.8zm245.6-157.9h-78.3v157.9h-39v-157.9h-77.9v-39.3h195.2zm220.7 157.9h-38.9v-79h-117.3v79h-39v-157.9q0-16.5 10.6-27.9 10.6-11.4 28.4-11.4h117.3q14.1 0 26.5 12.6 12.4 12.6 12.4 26.7zm-38.9-118.3v-39.7h-117.3v39.7zm259.7-39.7h-78.3v158h-38.9v-158h-78v-39.3h195.2zm186.8 158h-156.2v-197.3h156.2v39.3h-116.9v39.7h116.9v39.3h-116.9v39.7h116.9zm137.1-195.6h123.6q40.3 0 54.5 60.2l2 11q0 48.4-45.7 69.6l47.3 51.1v3.7h-56.4l-81.6-91.4v-1.7h68.8q23.9 0 29.3-31.3 0-24.5-25.6-29.2h-79.9v149.9l-3.7 3.7h-32.6l-3.7-3.7v-188.2zm372.6 195.5h-116.9q-17.5 0-28.4-11.2-10.9-11.3-10.9-28.1v-157.9h39.3v157.9h116.9v-157.9h39v157.9q0 16.5-10.4 27.9-10.4 11.4-28.6 11.4zm264.8-157.9h-78.3v157.9h-39v-157.9h-77.9v-39.3h195.2zm33.6-37.6h123.6q40.3 0 54.4 60.1l2 11.1q0 48.4-45.7 69.6l47.4 51v3.7h-56.4l-81.7-91.3v-1.7h68.9q23.9 0 29.3-31.3-0.1-24.5-25.6-29.2h-79.9v149.8l-3.7 3.7h-32.6l-3.7-3.7v-188.1zm367.9 195.5h-117.3q-31.2 0-37.6-26.2-1.4-6-1.4-13.1v-118.6q0-15.4 11.1-27.4 11.1-11.9 27.9-11.9h117.3q16.4 0 27.7 11.6 11.3 11.6 11.3 27.7v118.6q-0.1 39.3-39 39.3zm0-39.3v-118.6h-117.3v118.6zm265.4 39.3h-24.5l-131.7-128.3v128.3h-39v-197.2h24.2l132.1 128.4v-128.4h38.9zm76.3 0h-39v-197.2h39zm265.1 0h-53.4l-63.5-72.6-63.5 72.6h-53.8l93.8-98.5-93.8-98.7h53.8l63.5 72.5 63.5-72.5h53.4l-93.4 98.7z"/></svg>